<svg id="Capa_1" enable-background="new 0 0 512 512" height="512" viewBox="0 0 512 512" width="512" xmlns="http://www.w3.org/2000/svg"><g><g><path d="m405.559 43.568c-17.944-7.757-29.709-28.767-33.933-37.44-1.842-3.779-5.596-6.128-9.798-6.128-.001 0-.001 0-.002 0-4.202 0-7.956 2.347-9.799 6.126 0 0 0 .001-.001.002-4.224 8.673-15.986 29.681-33.932 37.44-4.015 1.736-6.609 5.671-6.609 10.026-.001 4.355 2.593 8.291 6.609 10.028 17.946 7.758 29.709 28.767 33.933 37.441 1.843 3.779 5.597 6.126 9.799 6.126h.002c4.202 0 7.955-2.349 9.796-6.128 4.225-8.673 15.99-29.683 33.935-37.44 4.015-1.736 6.609-5.672 6.608-10.027.001-4.356-2.593-8.291-6.608-10.026zm-43.733 43.892c-6.209-10.999-16.307-25.149-30.573-33.866 14.266-8.718 24.365-22.869 30.573-33.866 6.209 10.998 16.308 25.148 30.573 33.866-14.263 8.717-24.363 22.868-30.573 33.866z"/></g><g><path d="m218.598 157.559c-1.874-5.33-3.404-10.865-5.45-16.144-.532-1.372-1.098-2.727-1.716-4.059-.018-.039-.036-.079-.054-.118-3.252-6.822-8.828-13.623-16.044-16.516l-60.632-24.364 62.656-22.031c8.947-3.145 16.132-9.587 20.234-18.137s4.628-18.186 1.483-27.133l-6.723-19.12c-2.23-6.34-9.201-9.685-15.54-7.454l-148.172 52.1c-18.468 6.493-28.211 26.802-21.717 45.27 1.023 2.996 2.056 5.988 3.097 8.977 1.886 5.414 3.368 10.867 6.751 15.588 3.466 4.836 8.093 8.657 13.559 11.027 3.591 1.557 7.277 2.924 10.908 4.383 12.227 4.913 43.674 17.55 47.172 18.955.65.261 3.437 1.91 4.139 1.663-.001 0-64.386 22.639-64.386 22.639-8.947 3.145-16.132 9.587-20.234 18.137s-4.628 18.186-1.483 27.133c0 0 4.225 12.017 4.228 12.025 1.622 4.613 3.151 9.358 6.133 13.285 4.707 6.198 10.719 9.347 17.755 12.174l13.148 5.283c12.98 5.216 25.96 10.432 38.94 15.647 1.576.633 3.152 1.267 4.728 1.9l-18.618 6.546c-3.909 1.375-5.964 5.658-4.589 9.567s5.658 5.965 9.567 4.589l100.319-35.273 5.788 16.46c3.749 10.662-1.876 22.387-12.538 26.136l-145.514 51.165-5.788-16.46c-3.749-10.662 1.876-22.387 12.538-26.136l12.003-4.221c3.909-1.375 5.964-5.658 4.589-9.567-1.374-3.909-5.656-5.964-9.567-4.589l-12.003 4.221c-18.468 6.493-28.211 26.802-21.717 45.27 0 0 4.269 12.14 4.271 12.148 1.086 3.086 1.791 6.09 3.381 8.988 5.608 10.221 15.078 14.184 25.309 18.295 8.527 3.426 17.054 6.853 25.581 10.279 8.975 3.607 17.951 7.213 26.926 10.82l-64.157 22.559c-8.947 3.145-16.132 9.587-20.234 18.137s-4.628 18.186-1.483 27.133l6.723 19.12c1.761 5.007 6.479 8.145 11.509 8.145 1.338 0 2.698-.222 4.031-.691l148.172-52.099c18.468-6.493 28.211-26.802 21.717-45.27l-6.723-19.119c-2.219-6.315-8.73-12.668-14.415-16.007-5.612-3.296-11.814-5.432-17.829-7.849-15.001-6.028-30.001-12.055-45.002-18.083l62.657-22.031c8.947-3.145 16.132-9.587 20.234-18.137s4.628-18.186 1.483-27.133l-6.723-19.118c-3.199-8.725-11.28-14.338-19.426-18.051-18.884-8.607-38.379-15.817-57.626-23.551l62.656-22.031c18.469-6.494 28.212-26.803 21.718-45.272zm-27.697 287.495-145.513 51.163-5.788-16.46c-1.816-5.165-1.512-10.728.856-15.664 2.368-4.937 6.516-8.655 11.682-10.472l145.513-51.164 5.788 16.46c3.749 10.663-1.876 22.387-12.538 26.137zm-4.174-54.662-53.945 18.968-74.565-29.963 53.945-18.968zm-139.86-279.056-5.788-16.46c-3.749-10.662 1.876-22.387 12.538-26.136l145.513-51.164 5.788 16.46c3.749 10.662-1.876 22.387-12.538 26.136zm12.425 11.538 53.945-18.968 74.722 30.026-53.945 18.968zm127.496 139.28-53.946 18.968-74.027-29.746 53.945-18.968zm-140.397-22.316-5.788-16.46c-1.816-5.165-1.512-10.728.856-15.664 2.368-4.937 6.516-8.655 11.682-10.472l145.513-51.164 5.788 16.46c3.749 10.662-1.876 22.387-12.538 26.136z"/></g><g><path d="m464.013 295.785c-1.947-5.52-6.833-11.131-11.495-14.525-3.852-2.804-9.283-4.724-13.73-6.511-4.889-1.965-9.779-3.929-14.668-5.894l-37.353-15.009 62.656-22.031c18.469-6.493 28.21-26.801 21.717-45.27l-6.723-19.118c-1.08-3.072-3.29-5.538-6.225-6.947-2.937-1.408-6.243-1.589-9.314-.509l-102.978 36.209c-3.909 1.375-5.963 5.658-4.589 9.567 1.373 3.909 5.658 5.964 9.567 4.589l100.319-35.273 5.788 16.46c3.749 10.662-1.876 22.387-12.539 26.136l-145.512 51.164-5.788-16.459c-1.816-5.165-1.512-10.728.856-15.665 2.368-4.936 6.516-8.655 11.681-10.471l12.004-4.22c3.91-1.374 5.964-5.658 4.59-9.567s-5.66-5.966-9.567-4.589l-12.005 4.221c-8.946 3.145-16.132 9.587-20.233 18.137s-4.628 18.186-1.482 27.133c2.374 6.75 4.164 13.68 7.159 20.191 3.067 6.667 9.196 12.034 15.772 15.157 2.969 1.41 6.117 2.51 9.166 3.735 9.837 3.953 45.419 18.251 53.372 21.447l-64.157 22.559c-18.469 6.493-28.211 26.801-21.717 45.27l6.723 19.121c1.762 5.006 6.48 8.144 11.509 8.144 1.338 0 2.699-.223 4.032-.691l148.172-52.099c18.468-6.493 28.209-26.802 21.716-45.27-.001-.003-6.724-19.121-6.724-19.122zm-152.655-15.424 53.945-18.968 74.566 29.963-53.945 18.968zm132.683 65.657-145.513 51.164-5.788-16.46c-3.749-10.662 1.876-22.387 12.537-26.136l145.513-51.164 5.789 16.46c3.75 10.662-1.875 22.387-12.538 26.136z"/></g><g><path d="m482.38 420.786c-14.017-6.059-23.285-22.633-26.62-29.478-1.729-3.551-5.257-5.757-9.207-5.757-3.949 0-7.477 2.206-9.206 5.757-3.334 6.845-12.603 23.419-26.621 29.478-3.768 1.63-6.204 5.326-6.204 9.417-.001 4.091 2.435 7.788 6.205 9.419 14.018 6.06 23.285 22.633 26.62 29.479 1.73 3.551 5.258 5.756 9.206 5.756 3.949 0 7.477-2.206 9.207-5.757 3.334-6.844 12.602-23.418 26.621-29.478 3.768-1.63 6.204-5.327 6.203-9.418.001-4.092-2.435-7.788-6.204-9.418zm-35.827 33.816c-4.846-8.12-12.107-17.77-21.95-24.398 9.843-6.629 17.105-16.279 21.95-24.399 4.846 8.12 12.108 17.77 21.951 24.399-9.842 6.628-17.105 16.279-21.951 24.398z"/></g><g><path d="m310.995 87.013c-14.017-6.059-23.285-22.633-26.62-29.478-1.729-3.551-5.257-5.757-9.206-5.757s-7.477 2.206-9.206 5.757c-3.334 6.844-12.602 23.418-26.619 29.477-3.77 1.63-6.206 5.326-6.206 9.418s2.436 7.789 6.205 9.418c14.017 6.059 23.286 22.633 26.62 29.478 1.729 3.551 5.257 5.757 9.206 5.757s7.477-2.206 9.206-5.757c3.334-6.845 12.603-23.419 26.62-29.478 3.77-1.63 6.206-5.326 6.206-9.418s-2.435-7.788-6.206-9.417zm-35.825 33.815c-4.846-8.119-12.108-17.769-21.95-24.398 9.844-6.629 17.104-16.278 21.95-24.398 4.846 8.12 12.108 17.769 21.951 24.398-9.843 6.629-17.105 16.279-21.951 24.398z"/></g></g></svg>